<mxfile host="app.diagrams.net" agent="Mozilla/5.0 (Windows NT 10.0; Win64; x64) AppleWebKit/537.36 (KHTML, like Gecko) Chrome/131.0.0.0 Safari/537.36" version="24.8.6" pages="4">
  <diagram name="ページ1" id="4E8Ucx9zv8KWGiQMvLm0">
    <mxGraphModel dx="1018" dy="768" grid="1" gridSize="10" guides="1" tooltips="1" connect="1" arrows="1" fold="1" page="1" pageScale="1" pageWidth="827" pageHeight="1169" math="0" shadow="0">
      <root>
        <mxCell id="0" />
        <mxCell id="1" style="" parent="0" />
        <mxCell id="OHY4oF6m-HPhQRj7vnr0-1" value="開始" style="rounded=1;arcSize=20;strokeWidth=2" parent="1" vertex="1">
          <mxGeometry x="200" y="40" width="80" height="20" as="geometry" />
        </mxCell>
        <mxCell id="OHY4oF6m-HPhQRj7vnr0-2" value="実行時の日付から&#xa;前月末の日付を算出" style="whiteSpace=wrap;strokeWidth=2;" parent="1" vertex="1">
          <mxGeometry x="160" y="80" width="160" height="40" as="geometry" />
        </mxCell>
        <mxCell id="OHY4oF6m-HPhQRj7vnr0-4" value="前月の計測結果を取得する&#xa;クエリを作成" style="whiteSpace=wrap;strokeWidth=2;" parent="1" vertex="1">
          <mxGeometry x="160" y="140" width="160" height="40" as="geometry" />
        </mxCell>
        <mxCell id="OHY4oF6m-HPhQRj7vnr0-5" value="iNoniusスピードテストのDBへの接続情報を取得" style="whiteSpace=wrap;strokeWidth=2;" parent="1" vertex="1">
          <mxGeometry x="160" y="200" width="160" height="40" as="geometry" />
        </mxCell>
        <mxCell id="OHY4oF6m-HPhQRj7vnr0-6" value="iNoniusスピードテスト&#xa;BDへ接続" style="rhombus;strokeWidth=2;whiteSpace=wrap;" parent="1" vertex="1">
          <mxGeometry x="160" y="260" width="160" height="60" as="geometry" />
        </mxCell>
        <mxCell id="OHY4oF6m-HPhQRj7vnr0-7" value="クエリを実行" style="whiteSpace=wrap;strokeWidth=2;" parent="1" vertex="1">
          <mxGeometry x="280" y="320" width="160" height="40" as="geometry" />
        </mxCell>
        <mxCell id="OHY4oF6m-HPhQRj7vnr0-8" value="異常の通知" style="whiteSpace=wrap;strokeWidth=2;" parent="1" vertex="1">
          <mxGeometry x="80" y="320" width="80" height="40" as="geometry" />
        </mxCell>
        <mxCell id="OHY4oF6m-HPhQRj7vnr0-9" value="終了" style="rounded=1;whiteSpace=wrap;arcSize=50;strokeWidth=2;" parent="1" vertex="1">
          <mxGeometry x="200" y="560" width="80" height="39" as="geometry" />
        </mxCell>
        <mxCell id="OHY4oF6m-HPhQRj7vnr0-10" value="DBから1ヶ月間の&#xa;計測ログを取得" style="whiteSpace=wrap;strokeWidth=2;" parent="1" vertex="1">
          <mxGeometry x="280" y="380" width="160" height="40" as="geometry" />
        </mxCell>
        <mxCell id="OHY4oF6m-HPhQRj7vnr0-11" value="計測ログの件数" style="rhombus;strokeWidth=2;whiteSpace=wrap;" parent="1" vertex="1">
          <mxGeometry x="280" y="440" width="160" height="60" as="geometry" />
        </mxCell>
        <mxCell id="OHY4oF6m-HPhQRj7vnr0-12" value="異常の通知" style="whiteSpace=wrap;strokeWidth=2;" parent="1" vertex="1">
          <mxGeometry x="200" y="500" width="80" height="40" as="geometry" />
        </mxCell>
        <mxCell id="OHY4oF6m-HPhQRj7vnr0-13" value="外れ値の除去" style="whiteSpace=wrap;strokeWidth=2;" parent="1" vertex="1">
          <mxGeometry x="400" y="500" width="160" height="40" as="geometry" />
        </mxCell>
        <mxCell id="OHY4oF6m-HPhQRj7vnr0-14" value="可視化システムDBに接続" style="rhombus;strokeWidth=2;whiteSpace=wrap;" parent="1" vertex="1">
          <mxGeometry x="400" y="560" width="160" height="60" as="geometry" />
        </mxCell>
        <mxCell id="OHY4oF6m-HPhQRj7vnr0-15" value="アクセス環境の数ループ" style="shape=trapezoid;perimeter=trapezoidPerimeter;fixedSize=1;strokeWidth=2;whiteSpace=wrap;" parent="1" vertex="1">
          <mxGeometry x="520" y="620" width="160" height="39" as="geometry" />
        </mxCell>
        <mxCell id="OHY4oF6m-HPhQRj7vnr0-16" value="異常の通知" style="whiteSpace=wrap;strokeWidth=2;" parent="1" vertex="1">
          <mxGeometry x="320" y="620" width="80" height="40" as="geometry" />
        </mxCell>
        <mxCell id="OHY4oF6m-HPhQRj7vnr0-17" value="アクセス環境の条件に&#xa;合致するデータを抽出" style="whiteSpace=wrap;strokeWidth=2;" parent="1" vertex="1">
          <mxGeometry x="520" y="680" width="160" height="40" as="geometry" />
        </mxCell>
        <mxCell id="OHY4oF6m-HPhQRj7vnr0-18" value="基本統計量を算出" style="whiteSpace=wrap;strokeWidth=2;" parent="1" vertex="1">
          <mxGeometry x="520" y="740" width="160" height="40" as="geometry" />
        </mxCell>
        <mxCell id="OHY4oF6m-HPhQRj7vnr0-19" value="統計量記録用テーブルの更新" style="whiteSpace=wrap;strokeWidth=2;" parent="1" vertex="1">
          <mxGeometry x="520" y="800" width="160" height="40" as="geometry" />
        </mxCell>
        <mxCell id="OHY4oF6m-HPhQRj7vnr0-20" value="統計量記録用テーブルから&#xa;1年分のデータを取得" style="whiteSpace=wrap;strokeWidth=2;" parent="1" vertex="1">
          <mxGeometry x="520" y="860" width="160" height="40" as="geometry" />
        </mxCell>
        <mxCell id="OHY4oF6m-HPhQRj7vnr0-21" value="グラフを作成" style="whiteSpace=wrap;strokeWidth=2;" parent="1" vertex="1">
          <mxGeometry x="520" y="920" width="160" height="40" as="geometry" />
        </mxCell>
        <mxCell id="OHY4oF6m-HPhQRj7vnr0-22" value="グラフ画像記録用テーブルに保存" style="whiteSpace=wrap;strokeWidth=2;" parent="1" vertex="1">
          <mxGeometry x="520" y="980" width="160" height="40" as="geometry" />
        </mxCell>
        <mxCell id="OHY4oF6m-HPhQRj7vnr0-23" value="" style="shape=trapezoid;perimeter=trapezoidPerimeter;fixedSize=1;strokeWidth=2;whiteSpace=wrap;flipV=1;" parent="1" vertex="1">
          <mxGeometry x="520" y="1040" width="160" height="20" as="geometry" />
        </mxCell>
        <mxCell id="OHY4oF6m-HPhQRj7vnr0-24" value="終了" style="rounded=1;arcSize=20;strokeWidth=2" parent="1" vertex="1">
          <mxGeometry x="560" y="1080" width="80" height="20" as="geometry" />
        </mxCell>
        <mxCell id="5" value="終了" style="rounded=1;whiteSpace=wrap;arcSize=50;strokeWidth=2;" parent="1" vertex="1">
          <mxGeometry x="320" y="680" width="80" height="40" as="geometry" />
        </mxCell>
        <mxCell id="6" value="終了" style="rounded=1;whiteSpace=wrap;arcSize=50;strokeWidth=2;" parent="1" vertex="1">
          <mxGeometry x="80" y="380" width="80" height="39" as="geometry" />
        </mxCell>
        <mxCell id="2" value="矢印" parent="0" />
        <mxCell id="OHY4oF6m-HPhQRj7vnr0-50" value="" style="startArrow=none;endArrow=block;entryX=0.5;entryY=0;rounded=0;endSize=6;edgeStyle=orthogonalEdgeStyle;exitX=0.5;exitY=1;exitDx=0;exitDy=0;" parent="2" source="OHY4oF6m-HPhQRj7vnr0-23" target="OHY4oF6m-HPhQRj7vnr0-24" edge="1">
          <mxGeometry relative="1" as="geometry">
            <mxPoint x="600" y="2290" as="sourcePoint" />
          </mxGeometry>
        </mxCell>
        <mxCell id="OHY4oF6m-HPhQRj7vnr0-48" value="" style="startArrow=none;endArrow=block;exitX=0.5;exitY=1;entryX=0.5;entryY=0;rounded=0;endSize=6;edgeStyle=orthogonalEdgeStyle;entryDx=0;entryDy=0;" parent="2" source="OHY4oF6m-HPhQRj7vnr0-22" target="OHY4oF6m-HPhQRj7vnr0-23" edge="1">
          <mxGeometry relative="1" as="geometry" />
        </mxCell>
        <mxCell id="OHY4oF6m-HPhQRj7vnr0-47" value="" style="startArrow=none;endArrow=block;exitX=0.5;exitY=1;entryX=0.5;entryY=0;rounded=0;endSize=6;edgeStyle=orthogonalEdgeStyle;" parent="2" source="OHY4oF6m-HPhQRj7vnr0-21" target="OHY4oF6m-HPhQRj7vnr0-22" edge="1">
          <mxGeometry relative="1" as="geometry" />
        </mxCell>
        <mxCell id="OHY4oF6m-HPhQRj7vnr0-46" value="" style="startArrow=none;endArrow=block;exitX=0.5;exitY=1;entryX=0.5;entryY=0;rounded=0;endSize=6;edgeStyle=orthogonalEdgeStyle;" parent="2" source="OHY4oF6m-HPhQRj7vnr0-20" target="OHY4oF6m-HPhQRj7vnr0-21" edge="1">
          <mxGeometry relative="1" as="geometry" />
        </mxCell>
        <mxCell id="OHY4oF6m-HPhQRj7vnr0-49" value="" style="startArrow=none;endArrow=block;exitX=0;exitY=0.5;entryX=0;entryY=0.5;rounded=0;endSize=6;edgeStyle=orthogonalEdgeStyle;entryDx=0;entryDy=0;exitDx=0;exitDy=0;" parent="2" source="OHY4oF6m-HPhQRj7vnr0-23" target="OHY4oF6m-HPhQRj7vnr0-15" edge="1">
          <mxGeometry relative="1" as="geometry">
            <Array as="points">
              <mxPoint x="480" y="1050" />
              <mxPoint x="480" y="640" />
            </Array>
          </mxGeometry>
        </mxCell>
        <mxCell id="OHY4oF6m-HPhQRj7vnr0-45" value="" style="startArrow=none;endArrow=block;exitX=0.5;exitY=1;entryX=0.5;entryY=0;rounded=0;endSize=6;edgeStyle=orthogonalEdgeStyle;" parent="2" source="OHY4oF6m-HPhQRj7vnr0-19" target="OHY4oF6m-HPhQRj7vnr0-20" edge="1">
          <mxGeometry relative="1" as="geometry" />
        </mxCell>
        <mxCell id="OHY4oF6m-HPhQRj7vnr0-44" value="" style="startArrow=none;endArrow=block;exitX=0.5;exitY=1;entryX=0.5;entryY=0;rounded=0;endSize=6;edgeStyle=orthogonalEdgeStyle;" parent="2" source="OHY4oF6m-HPhQRj7vnr0-18" target="OHY4oF6m-HPhQRj7vnr0-19" edge="1">
          <mxGeometry relative="1" as="geometry" />
        </mxCell>
        <mxCell id="OHY4oF6m-HPhQRj7vnr0-43" value="" style="startArrow=none;endArrow=block;exitX=0.5;exitY=1;entryX=0.5;entryY=0;rounded=0;endSize=6;edgeStyle=orthogonalEdgeStyle;" parent="2" source="OHY4oF6m-HPhQRj7vnr0-17" target="OHY4oF6m-HPhQRj7vnr0-18" edge="1">
          <mxGeometry relative="1" as="geometry" />
        </mxCell>
        <mxCell id="OHY4oF6m-HPhQRj7vnr0-42" value="" style="startArrow=none;endArrow=block;entryX=0.5;entryY=0;rounded=0;endSize=6;edgeStyle=orthogonalEdgeStyle;exitX=0.5;exitY=1;exitDx=0;exitDy=0;" parent="2" source="OHY4oF6m-HPhQRj7vnr0-15" target="OHY4oF6m-HPhQRj7vnr0-17" edge="1">
          <mxGeometry relative="1" as="geometry">
            <mxPoint x="973" y="1493" as="sourcePoint" />
          </mxGeometry>
        </mxCell>
        <mxCell id="OHY4oF6m-HPhQRj7vnr0-39" value="成功" style="startArrow=none;endArrow=block;exitX=1;exitY=0.5;rounded=0;endSize=6;edgeStyle=orthogonalEdgeStyle;exitDx=0;exitDy=0;entryX=0.5;entryY=0;entryDx=0;entryDy=0;" parent="2" source="OHY4oF6m-HPhQRj7vnr0-14" target="OHY4oF6m-HPhQRj7vnr0-15" edge="1">
          <mxGeometry relative="1" as="geometry">
            <mxPoint x="863" y="1528" as="targetPoint" />
          </mxGeometry>
        </mxCell>
        <mxCell id="OHY4oF6m-HPhQRj7vnr0-40" value="失敗" style="startArrow=none;endArrow=block;exitX=0;exitY=0.5;entryX=0.5;entryY=0;rounded=0;endSize=6;edgeStyle=orthogonalEdgeStyle;exitDx=0;exitDy=0;" parent="2" source="OHY4oF6m-HPhQRj7vnr0-14" target="OHY4oF6m-HPhQRj7vnr0-16" edge="1">
          <mxGeometry relative="1" as="geometry" />
        </mxCell>
        <mxCell id="OHY4oF6m-HPhQRj7vnr0-41" value="" style="startArrow=none;endArrow=block;exitX=0.5;exitY=1;rounded=0;endSize=6;edgeStyle=orthogonalEdgeStyle;" parent="2" source="OHY4oF6m-HPhQRj7vnr0-16" target="5" edge="1">
          <mxGeometry relative="1" as="geometry" />
        </mxCell>
        <mxCell id="OHY4oF6m-HPhQRj7vnr0-36" value="" style="startArrow=none;endArrow=block;exitX=0.5;exitY=1;entryX=0.49;entryY=0.01;rounded=0;endSize=6;edgeStyle=orthogonalEdgeStyle;" parent="2" source="OHY4oF6m-HPhQRj7vnr0-12" target="OHY4oF6m-HPhQRj7vnr0-9" edge="1">
          <mxGeometry relative="1" as="geometry" />
        </mxCell>
        <mxCell id="OHY4oF6m-HPhQRj7vnr0-32" value="" style="startArrow=none;endArrow=block;exitX=0.5;exitY=1;rounded=0;endSize=6;edgeStyle=orthogonalEdgeStyle;" parent="2" source="OHY4oF6m-HPhQRj7vnr0-8" target="6" edge="1">
          <mxGeometry relative="1" as="geometry" />
        </mxCell>
        <mxCell id="OHY4oF6m-HPhQRj7vnr0-31" value="失敗" style="startArrow=none;endArrow=block;exitX=0;exitY=0.5;entryX=0.5;entryY=0;rounded=0;endSize=6;edgeStyle=orthogonalEdgeStyle;exitDx=0;exitDy=0;" parent="2" source="OHY4oF6m-HPhQRj7vnr0-6" target="OHY4oF6m-HPhQRj7vnr0-8" edge="1">
          <mxGeometry relative="1" as="geometry" />
        </mxCell>
        <mxCell id="OHY4oF6m-HPhQRj7vnr0-35" value="0件" style="startArrow=none;endArrow=block;exitX=0;exitY=0.5;entryX=0.5;entryY=0;rounded=0;endSize=6;edgeStyle=orthogonalEdgeStyle;exitDx=0;exitDy=0;" parent="2" source="OHY4oF6m-HPhQRj7vnr0-11" target="OHY4oF6m-HPhQRj7vnr0-12" edge="1">
          <mxGeometry relative="1" as="geometry" />
        </mxCell>
        <mxCell id="OHY4oF6m-HPhQRj7vnr0-34" value="" style="startArrow=none;endArrow=block;exitX=0.5;exitY=1;entryX=0.5;entryY=0;rounded=0;endSize=6;edgeStyle=orthogonalEdgeStyle;" parent="2" source="OHY4oF6m-HPhQRj7vnr0-10" target="OHY4oF6m-HPhQRj7vnr0-11" edge="1">
          <mxGeometry relative="1" as="geometry" />
        </mxCell>
        <mxCell id="OHY4oF6m-HPhQRj7vnr0-37" value="1件以上" style="startArrow=none;endArrow=block;exitX=1;exitY=0.5;entryX=0.5;entryY=0;rounded=0;endSize=6;edgeStyle=orthogonalEdgeStyle;exitDx=0;exitDy=0;" parent="2" source="OHY4oF6m-HPhQRj7vnr0-11" target="OHY4oF6m-HPhQRj7vnr0-13" edge="1">
          <mxGeometry relative="1" as="geometry" />
        </mxCell>
        <mxCell id="OHY4oF6m-HPhQRj7vnr0-38" value="" style="startArrow=none;endArrow=block;exitX=0.5;exitY=1;entryX=0.5;entryY=0;rounded=0;endSize=6;edgeStyle=orthogonalEdgeStyle;" parent="2" source="OHY4oF6m-HPhQRj7vnr0-13" target="OHY4oF6m-HPhQRj7vnr0-14" edge="1">
          <mxGeometry relative="1" as="geometry" />
        </mxCell>
        <mxCell id="OHY4oF6m-HPhQRj7vnr0-30" value="成功" style="startArrow=none;endArrow=block;exitX=1;exitY=0.5;entryX=0.5;entryY=0;rounded=0;endSize=6;edgeStyle=orthogonalEdgeStyle;exitDx=0;exitDy=0;" parent="2" source="OHY4oF6m-HPhQRj7vnr0-6" target="OHY4oF6m-HPhQRj7vnr0-7" edge="1">
          <mxGeometry relative="1" as="geometry" />
        </mxCell>
        <mxCell id="OHY4oF6m-HPhQRj7vnr0-33" value="" style="startArrow=none;endArrow=block;exitX=0.5;exitY=1;entryX=0.5;entryY=0;rounded=0;endSize=6;edgeStyle=orthogonalEdgeStyle;" parent="2" source="OHY4oF6m-HPhQRj7vnr0-7" target="OHY4oF6m-HPhQRj7vnr0-10" edge="1">
          <mxGeometry relative="1" as="geometry" />
        </mxCell>
        <mxCell id="OHY4oF6m-HPhQRj7vnr0-29" value="" style="startArrow=none;endArrow=block;exitX=0.5;exitY=1;entryX=0.5;entryY=0;rounded=0;endSize=6;edgeStyle=orthogonalEdgeStyle;" parent="2" source="OHY4oF6m-HPhQRj7vnr0-5" target="OHY4oF6m-HPhQRj7vnr0-6" edge="1">
          <mxGeometry relative="1" as="geometry" />
        </mxCell>
        <mxCell id="OHY4oF6m-HPhQRj7vnr0-28" value="" style="startArrow=none;endArrow=block;exitX=0.5;exitY=1;entryX=0.5;entryY=0;rounded=0;endSize=6;edgeStyle=orthogonalEdgeStyle;" parent="2" source="OHY4oF6m-HPhQRj7vnr0-4" target="OHY4oF6m-HPhQRj7vnr0-5" edge="1">
          <mxGeometry relative="1" as="geometry" />
        </mxCell>
        <mxCell id="OHY4oF6m-HPhQRj7vnr0-27" value="" style="startArrow=none;endArrow=block;exitX=0.5;exitY=1;entryX=0.5;entryY=0;rounded=0;endSize=6;edgeStyle=orthogonalEdgeStyle;exitDx=0;exitDy=0;" parent="2" source="OHY4oF6m-HPhQRj7vnr0-2" target="OHY4oF6m-HPhQRj7vnr0-4" edge="1">
          <mxGeometry relative="1" as="geometry">
            <mxPoint x="240" y="179.99999999999977" as="sourcePoint" />
          </mxGeometry>
        </mxCell>
        <mxCell id="OHY4oF6m-HPhQRj7vnr0-25" value="" style="startArrow=none;endArrow=block;exitX=0.49;exitY=1;entryX=0.5;entryY=0;rounded=0;endSize=6;edgeStyle=orthogonalEdgeStyle;" parent="2" source="OHY4oF6m-HPhQRj7vnr0-1" target="OHY4oF6m-HPhQRj7vnr0-2" edge="1">
          <mxGeometry relative="1" as="geometry" />
        </mxCell>
      </root>
    </mxGraphModel>
  </diagram>
  <diagram id="UjQfxtD05r0bKv9PmIGB" name="ページ2">
    <mxGraphModel dx="1697" dy="1280" grid="1" gridSize="10" guides="1" tooltips="1" connect="1" arrows="1" fold="1" page="1" pageScale="1" pageWidth="827" pageHeight="1169" math="0" shadow="0">
      <root>
        <mxCell id="0" />
        <mxCell id="1" parent="0" />
        <mxCell id="8PHe45BI6lCYNda3EOMY-1" value="グラフの表示リクエストを受信" style="rounded=1;arcSize=20;strokeWidth=2" parent="1" vertex="1">
          <mxGeometry x="40" y="40" width="240" height="40" as="geometry" />
        </mxCell>
        <mxCell id="8PHe45BI6lCYNda3EOMY-2" value="リクエストからアクセス環境を取得" style="whiteSpace=wrap;strokeWidth=2;" parent="1" vertex="1">
          <mxGeometry x="40" y="118" width="240" height="40" as="geometry" />
        </mxCell>
        <mxCell id="8PHe45BI6lCYNda3EOMY-3" value="画像生成コンテナにリクエストを送信" style="whiteSpace=wrap;strokeWidth=2;" parent="1" vertex="1">
          <mxGeometry x="40" y="200" width="240" height="40" as="geometry" />
        </mxCell>
        <mxCell id="8PHe45BI6lCYNda3EOMY-4" value="画像生成コンテナから画像の&#xa;一時アドレスのファイルを取得" style="whiteSpace=wrap;strokeWidth=2;" parent="1" vertex="1">
          <mxGeometry x="40" y="280" width="240" height="40" as="geometry" />
        </mxCell>
        <mxCell id="8PHe45BI6lCYNda3EOMY-5" value="画像の一時アドレスをクライアントに返信" style="whiteSpace=wrap;strokeWidth=2;" parent="1" vertex="1">
          <mxGeometry x="40" y="360" width="240" height="40" as="geometry" />
        </mxCell>
        <mxCell id="8PHe45BI6lCYNda3EOMY-6" value="終了" style="rounded=1;arcSize=20;strokeWidth=2" parent="1" vertex="1">
          <mxGeometry x="120" y="440" width="80" height="40" as="geometry" />
        </mxCell>
        <mxCell id="8PHe45BI6lCYNda3EOMY-7" value="" style="curved=1;startArrow=none;endArrow=block;exitX=0.5;exitY=1;entryX=0.5;entryY=0;rounded=0;" parent="1" source="8PHe45BI6lCYNda3EOMY-1" target="8PHe45BI6lCYNda3EOMY-2" edge="1">
          <mxGeometry relative="1" as="geometry">
            <Array as="points" />
          </mxGeometry>
        </mxCell>
        <mxCell id="8PHe45BI6lCYNda3EOMY-8" value="" style="curved=1;startArrow=none;endArrow=block;exitX=0.5;exitY=1;entryX=0.5;entryY=0;rounded=0;" parent="1" source="8PHe45BI6lCYNda3EOMY-2" target="8PHe45BI6lCYNda3EOMY-3" edge="1">
          <mxGeometry relative="1" as="geometry">
            <Array as="points" />
          </mxGeometry>
        </mxCell>
        <mxCell id="8PHe45BI6lCYNda3EOMY-9" value="" style="curved=1;startArrow=none;endArrow=block;exitX=0.5;exitY=1;entryX=0.5;entryY=0;rounded=0;" parent="1" source="8PHe45BI6lCYNda3EOMY-3" target="8PHe45BI6lCYNda3EOMY-4" edge="1">
          <mxGeometry relative="1" as="geometry">
            <Array as="points" />
          </mxGeometry>
        </mxCell>
        <mxCell id="8PHe45BI6lCYNda3EOMY-10" value="" style="curved=1;startArrow=none;endArrow=block;exitX=0.5;exitY=1;entryX=0.5;entryY=0;rounded=0;" parent="1" source="8PHe45BI6lCYNda3EOMY-4" target="8PHe45BI6lCYNda3EOMY-5" edge="1">
          <mxGeometry relative="1" as="geometry">
            <Array as="points" />
          </mxGeometry>
        </mxCell>
        <mxCell id="8PHe45BI6lCYNda3EOMY-11" value="" style="curved=1;startArrow=none;endArrow=block;exitX=0.5;exitY=1;entryX=0.5;entryY=0;rounded=0;" parent="1" source="8PHe45BI6lCYNda3EOMY-5" target="8PHe45BI6lCYNda3EOMY-6" edge="1">
          <mxGeometry relative="1" as="geometry">
            <Array as="points" />
          </mxGeometry>
        </mxCell>
      </root>
    </mxGraphModel>
  </diagram>
  <diagram id="M4yiIrr_9MeW8uic6UUF" name="ページ3">
    <mxGraphModel dx="1434" dy="772" grid="1" gridSize="10" guides="1" tooltips="1" connect="1" arrows="1" fold="1" page="1" pageScale="1" pageWidth="827" pageHeight="1169" math="0" shadow="0">
      <root>
        <mxCell id="0" />
        <mxCell id="1" parent="0" />
        <mxCell id="rdquphrufBSfeFqwQiiY-1" value="Webサーバーコンテナからリクエストを受信" style="rounded=1;arcSize=20;strokeWidth=2" parent="1" vertex="1">
          <mxGeometry x="159" y="40" width="241" height="40" as="geometry" />
        </mxCell>
        <mxCell id="rdquphrufBSfeFqwQiiY-2" value="リクエストからアクセス環境を取得" style="whiteSpace=wrap;strokeWidth=2;" parent="1" vertex="1">
          <mxGeometry x="159" y="118" width="241" height="42" as="geometry" />
        </mxCell>
        <mxCell id="rdquphrufBSfeFqwQiiY-3" value="前月までのアクセス環境のグラフ画像を&#xa;取得するクエリを作成" style="whiteSpace=wrap;strokeWidth=2;" parent="1" vertex="1">
          <mxGeometry x="159" y="200" width="241" height="40" as="geometry" />
        </mxCell>
        <mxCell id="rdquphrufBSfeFqwQiiY-4" value="可視化システムDBに接続" style="rhombus;strokeWidth=2;whiteSpace=wrap;" parent="1" vertex="1">
          <mxGeometry x="159" y="280" width="241" height="80" as="geometry" />
        </mxCell>
        <mxCell id="rdquphrufBSfeFqwQiiY-5" value="クエリを実行" style="whiteSpace=wrap;strokeWidth=2;" parent="1" vertex="1">
          <mxGeometry x="319" y="360" width="240" height="40" as="geometry" />
        </mxCell>
        <mxCell id="rdquphrufBSfeFqwQiiY-6" value="異常の通知" style="whiteSpace=wrap;strokeWidth=2;" parent="1" vertex="1">
          <mxGeometry x="40" y="360" width="159" height="40" as="geometry" />
        </mxCell>
        <mxCell id="rdquphrufBSfeFqwQiiY-7" value="終了" style="rounded=1;arcSize=20;strokeWidth=2" parent="1" vertex="1">
          <mxGeometry x="79" y="440" width="80" height="40" as="geometry" />
        </mxCell>
        <mxCell id="rdquphrufBSfeFqwQiiY-8" value="グラフ画像記録用テーブルから&#xa;画像データを取得" style="whiteSpace=wrap;strokeWidth=2;" parent="1" vertex="1">
          <mxGeometry x="319" y="440" width="240" height="40" as="geometry" />
        </mxCell>
        <mxCell id="rdquphrufBSfeFqwQiiY-9" value="画像データから一時ファイルを作成" style="whiteSpace=wrap;strokeWidth=2;" parent="1" vertex="1">
          <mxGeometry x="319" y="520" width="240" height="40" as="geometry" />
        </mxCell>
        <mxCell id="rdquphrufBSfeFqwQiiY-10" value="一時ファイルのアドレスを&#xa;Webサーバーコンテナに返信" style="whiteSpace=wrap;strokeWidth=2;" parent="1" vertex="1">
          <mxGeometry x="319" y="600" width="240" height="40" as="geometry" />
        </mxCell>
        <mxCell id="rdquphrufBSfeFqwQiiY-11" value="終了" style="rounded=1;arcSize=20;strokeWidth=2" parent="1" vertex="1">
          <mxGeometry x="399" y="680" width="80" height="40" as="geometry" />
        </mxCell>
        <mxCell id="rdquphrufBSfeFqwQiiY-12" value="" style="curved=1;startArrow=none;endArrow=block;exitX=0.5;exitY=1;entryX=0.5;entryY=0;rounded=0;" parent="1" source="rdquphrufBSfeFqwQiiY-1" target="rdquphrufBSfeFqwQiiY-2" edge="1">
          <mxGeometry relative="1" as="geometry">
            <Array as="points" />
          </mxGeometry>
        </mxCell>
        <mxCell id="rdquphrufBSfeFqwQiiY-13" value="" style="curved=1;startArrow=none;endArrow=block;exitX=0.5;exitY=1;entryX=0.5;entryY=0;rounded=0;" parent="1" source="rdquphrufBSfeFqwQiiY-2" target="rdquphrufBSfeFqwQiiY-3" edge="1">
          <mxGeometry relative="1" as="geometry">
            <Array as="points" />
          </mxGeometry>
        </mxCell>
        <mxCell id="rdquphrufBSfeFqwQiiY-14" value="" style="curved=1;startArrow=none;endArrow=block;exitX=0.5;exitY=1;entryX=0.5;entryY=0;rounded=0;" parent="1" source="rdquphrufBSfeFqwQiiY-3" target="rdquphrufBSfeFqwQiiY-4" edge="1">
          <mxGeometry relative="1" as="geometry">
            <Array as="points" />
          </mxGeometry>
        </mxCell>
        <mxCell id="rdquphrufBSfeFqwQiiY-15" value="Yes" style="startArrow=none;endArrow=block;exitX=1;exitY=0.5;entryX=0.5;entryY=0;rounded=0;exitDx=0;exitDy=0;edgeStyle=orthogonalEdgeStyle;" parent="1" source="rdquphrufBSfeFqwQiiY-4" target="rdquphrufBSfeFqwQiiY-5" edge="1">
          <mxGeometry relative="1" as="geometry" />
        </mxCell>
        <mxCell id="rdquphrufBSfeFqwQiiY-16" value="No" style="startArrow=none;endArrow=block;exitX=0;exitY=0.5;entryX=0.5;entryY=0;rounded=0;exitDx=0;exitDy=0;edgeStyle=orthogonalEdgeStyle;" parent="1" source="rdquphrufBSfeFqwQiiY-4" target="rdquphrufBSfeFqwQiiY-6" edge="1">
          <mxGeometry relative="1" as="geometry" />
        </mxCell>
        <mxCell id="rdquphrufBSfeFqwQiiY-17" value="" style="curved=1;startArrow=none;endArrow=block;exitX=0.5;exitY=1;entryX=0.5;entryY=0;rounded=0;" parent="1" source="rdquphrufBSfeFqwQiiY-6" target="rdquphrufBSfeFqwQiiY-7" edge="1">
          <mxGeometry relative="1" as="geometry">
            <Array as="points" />
          </mxGeometry>
        </mxCell>
        <mxCell id="rdquphrufBSfeFqwQiiY-18" value="" style="curved=1;startArrow=none;endArrow=block;exitX=0.5;exitY=1;entryX=0.5;entryY=0;rounded=0;" parent="1" source="rdquphrufBSfeFqwQiiY-5" target="rdquphrufBSfeFqwQiiY-8" edge="1">
          <mxGeometry relative="1" as="geometry">
            <Array as="points" />
          </mxGeometry>
        </mxCell>
        <mxCell id="rdquphrufBSfeFqwQiiY-19" value="" style="curved=1;startArrow=none;endArrow=block;exitX=0.5;exitY=1;entryX=0.5;entryY=0;rounded=0;" parent="1" source="rdquphrufBSfeFqwQiiY-8" target="rdquphrufBSfeFqwQiiY-9" edge="1">
          <mxGeometry relative="1" as="geometry">
            <Array as="points" />
          </mxGeometry>
        </mxCell>
        <mxCell id="rdquphrufBSfeFqwQiiY-20" value="" style="curved=1;startArrow=none;endArrow=block;exitX=0.5;exitY=1;entryX=0.5;entryY=0;rounded=0;" parent="1" source="rdquphrufBSfeFqwQiiY-9" target="rdquphrufBSfeFqwQiiY-10" edge="1">
          <mxGeometry relative="1" as="geometry">
            <Array as="points" />
          </mxGeometry>
        </mxCell>
        <mxCell id="rdquphrufBSfeFqwQiiY-21" value="" style="curved=1;startArrow=none;endArrow=block;exitX=0.5;exitY=1;entryX=0.5;entryY=0;rounded=0;" parent="1" source="rdquphrufBSfeFqwQiiY-10" target="rdquphrufBSfeFqwQiiY-11" edge="1">
          <mxGeometry relative="1" as="geometry">
            <Array as="points" />
          </mxGeometry>
        </mxCell>
      </root>
    </mxGraphModel>
  </diagram>
  <diagram id="nIitGwQlZ2UqpABLVaF8" name="ページ4">
    <mxGraphModel dx="1434" dy="772" grid="1" gridSize="10" guides="1" tooltips="1" connect="1" arrows="1" fold="1" page="1" pageScale="1" pageWidth="827" pageHeight="1169" math="0" shadow="0">
      <root>
        <mxCell id="0" />
        <mxCell id="1" parent="0" />
        <mxCell id="awrM5JSZTaEejr0bfNZA-1" value="クライアント端末" style="shape=umlLifeline;perimeter=lifelinePerimeter;whiteSpace=wrap;container=1;dropTarget=0;collapsible=0;recursiveResize=0;outlineConnect=0;portConstraint=eastwest;newEdgeStyle={&quot;edgeStyle&quot;:&quot;elbowEdgeStyle&quot;,&quot;elbow&quot;:&quot;vertical&quot;,&quot;curved&quot;:0,&quot;rounded&quot;:0};size=65;" vertex="1" parent="1">
          <mxGeometry x="20" y="20" width="150" height="508" as="geometry" />
        </mxCell>
        <mxCell id="awrM5JSZTaEejr0bfNZA-2" value="Webサーバーコンテナ" style="shape=umlLifeline;perimeter=lifelinePerimeter;whiteSpace=wrap;container=1;dropTarget=0;collapsible=0;recursiveResize=0;outlineConnect=0;portConstraint=eastwest;newEdgeStyle={&quot;edgeStyle&quot;:&quot;elbowEdgeStyle&quot;,&quot;elbow&quot;:&quot;vertical&quot;,&quot;curved&quot;:0,&quot;rounded&quot;:0};size=65;" vertex="1" parent="1">
          <mxGeometry x="251" y="20" width="182" height="508" as="geometry" />
        </mxCell>
        <mxCell id="awrM5JSZTaEejr0bfNZA-3" value="画像生成コンテナ" style="shape=umlLifeline;perimeter=lifelinePerimeter;whiteSpace=wrap;container=1;dropTarget=0;collapsible=0;recursiveResize=0;outlineConnect=0;portConstraint=eastwest;newEdgeStyle={&quot;edgeStyle&quot;:&quot;elbowEdgeStyle&quot;,&quot;elbow&quot;:&quot;vertical&quot;,&quot;curved&quot;:0,&quot;rounded&quot;:0};size=65;" vertex="1" parent="1">
          <mxGeometry x="562" y="20" width="150" height="508" as="geometry" />
        </mxCell>
        <mxCell id="awrM5JSZTaEejr0bfNZA-4" value="可視化システムDB" style="shape=umlLifeline;perimeter=lifelinePerimeter;whiteSpace=wrap;container=1;dropTarget=0;collapsible=0;recursiveResize=0;outlineConnect=0;portConstraint=eastwest;newEdgeStyle={&quot;edgeStyle&quot;:&quot;elbowEdgeStyle&quot;,&quot;elbow&quot;:&quot;vertical&quot;,&quot;curved&quot;:0,&quot;rounded&quot;:0};size=65;" vertex="1" parent="1">
          <mxGeometry x="807" y="20" width="155" height="508" as="geometry" />
        </mxCell>
        <mxCell id="awrM5JSZTaEejr0bfNZA-5" value="グラフの表示リクエスト" style="verticalAlign=bottom;edgeStyle=elbowEdgeStyle;elbow=vertical;curved=0;rounded=0;endArrow=block;" edge="1" parent="1" source="awrM5JSZTaEejr0bfNZA-1" target="awrM5JSZTaEejr0bfNZA-2">
          <mxGeometry relative="1" as="geometry">
            <Array as="points">
              <mxPoint x="227" y="133" />
            </Array>
          </mxGeometry>
        </mxCell>
        <mxCell id="awrM5JSZTaEejr0bfNZA-6" value="グラフの画像の取得リクエスト" style="verticalAlign=bottom;edgeStyle=elbowEdgeStyle;elbow=vertical;curved=0;rounded=0;endArrow=block;" edge="1" parent="1" source="awrM5JSZTaEejr0bfNZA-2" target="awrM5JSZTaEejr0bfNZA-3">
          <mxGeometry relative="1" as="geometry">
            <Array as="points">
              <mxPoint x="498" y="191" />
            </Array>
          </mxGeometry>
        </mxCell>
        <mxCell id="awrM5JSZTaEejr0bfNZA-7" value="グラフ画像の取得クエリ" style="verticalAlign=bottom;edgeStyle=elbowEdgeStyle;elbow=vertical;curved=0;rounded=0;endArrow=block;" edge="1" parent="1" source="awrM5JSZTaEejr0bfNZA-3" target="awrM5JSZTaEejr0bfNZA-4">
          <mxGeometry relative="1" as="geometry">
            <Array as="points">
              <mxPoint x="769" y="249" />
            </Array>
          </mxGeometry>
        </mxCell>
        <mxCell id="awrM5JSZTaEejr0bfNZA-8" value="グラフ画像の取得結果" style="verticalAlign=bottom;edgeStyle=elbowEdgeStyle;elbow=vertical;curved=0;rounded=0;dashed=1;dashPattern=2 3;endArrow=block;" edge="1" parent="1" source="awrM5JSZTaEejr0bfNZA-4" target="awrM5JSZTaEejr0bfNZA-3">
          <mxGeometry relative="1" as="geometry">
            <Array as="points">
              <mxPoint x="772" y="307" />
            </Array>
          </mxGeometry>
        </mxCell>
        <mxCell id="awrM5JSZTaEejr0bfNZA-9" value="グラフ画像の一時アドレス" style="verticalAlign=bottom;edgeStyle=elbowEdgeStyle;elbow=vertical;curved=0;rounded=0;dashed=1;dashPattern=2 3;endArrow=block;" edge="1" parent="1" source="awrM5JSZTaEejr0bfNZA-3" target="awrM5JSZTaEejr0bfNZA-2">
          <mxGeometry relative="1" as="geometry">
            <Array as="points">
              <mxPoint x="501" y="365" />
            </Array>
          </mxGeometry>
        </mxCell>
        <mxCell id="awrM5JSZTaEejr0bfNZA-10" value="グラフ画像の表示" style="verticalAlign=bottom;edgeStyle=elbowEdgeStyle;elbow=vertical;curved=0;rounded=0;dashed=1;dashPattern=2 3;endArrow=block;" edge="1" parent="1" source="awrM5JSZTaEejr0bfNZA-2" target="awrM5JSZTaEejr0bfNZA-1">
          <mxGeometry relative="1" as="geometry">
            <Array as="points">
              <mxPoint x="230" y="423" />
            </Array>
          </mxGeometry>
        </mxCell>
      </root>
    </mxGraphModel>
  </diagram>
</mxfile>
